<?xml version="1.0" encoding="UTF-8" standalone="no"?>
<svg xmlns="http://www.w3.org/2000/svg" viewBox="0 0 1393.0 716.0">
  <g>
    <g>
      <path class="edgeUnselected" d="M 820.00, 304.00 L 820.00, 204.00 "/>
      <text class="edgeUnselected" fill="black" font-family="Arial" font-size="20.0px" text-anchor="middle" transform="rotate(-90.0 810.0 254.0)" x="810.0" y="254.0"/>
    </g>
    <path class="arrowInheritanceUnselected" d="M 820.00, 204.00 L 785.00, 186.50 L 785.00, 221.50 Z " transform="rotate(270 820.0 204.0)"/>
    <g>
      <g>
        <path class="edgeUnselected" d="M 232.00, 431.00 L 232.00, 304.00 L 820.00, 304.00 "/>
        <text class="edgeUnselected" fill="black" font-family="Arial" font-size="20.0px" text-anchor="middle" transform="rotate(-90.0 222.0 367.5)" x="222.0" y="367.5"/>
      </g>
    </g>
    <g>
      <g>
        <path class="edgeUnselected" d="M 820.00, 404.00 L 820.00, 304.00 "/>
        <text class="edgeUnselected" fill="black" font-family="Arial" font-size="20.0px" text-anchor="middle" transform="rotate(-90.0 810.0 354.0)" x="810.0" y="354.0"/>
      </g>
    </g>
  </g>
  <g>
    <g>
      <path class="edgeUnselected" d="M 172.00, 222.00 L 172.00, 431.00 "/>
      <text class="edgeUnselected" fill="black" font-family="Arial" font-size="20.0px" text-anchor="middle" transform="rotate(-90.0 162.0 326.5)" x="162.0" y="326.5"/>
    </g>
    <g>
      <g>
        <path class="arrowUnselected" d="M 172.00, 222.00 L 157.00, 214.50 L 157.00, 229.50 Z " fill-opacity="0" stroke-opacity="0" transform="rotate(270 172.0 222.0)"/>
      </g>
      <text class="edgeUnselected" dominant-baseline="baseline" fill="black" fill-opacity="1" font-family="Arial" font-size="20.0px" id="rotated-text-association-source" text-anchor="end" transform="rotate(-90 162.0 237.0)" x="162.0" y="237.0">day</text>
      <text class="edgeUnselected" dominant-baseline="hanging" fill="black" fill-opacity="1" font-family="Arial" font-size="20.0px" id="non-rotated-text-association-source" text-anchor="start" x="182.0" y="237.0">1</text>
    </g>
    <g>
      <g>
        <path class="arrowUnselected" d="M 172.00, 222.00 L 149.50, 207.00 L 127.00, 222.00 L 149.50, 237.00 Z " fill-opacity="0" stroke-opacity="0" transform="rotate(270 172.0 222.0)"/>
        <g>
          <path class="arrowUnselected" d="M 172.00, 267.00 L 157.00, 259.50 L 157.00, 274.50 Z " fill-opacity="0" stroke-opacity="0" transform="rotate(270 172.0 267.0)"/>
        </g>
        <text class="edgeUnselected" dominant-baseline="baseline" fill="black" fill-opacity="0" font-family="Arial" font-size="20.0px" id="rotated-text-composition-source" text-anchor="end" transform="rotate(-90 162.0 282.0)" x="162.0" y="282.0">day</text>
      </g>
    </g>
    <g>
      <g>
        <path class="arrowUnselected" d="M 172.00, 431.00 L 157.00, 423.50 L 157.00, 438.50 Z " fill-opacity="1" stroke-opacity="1" transform="rotate(90 172.0 431.0)"/>
      </g>
      <text class="edgeUnselected" dominant-baseline="baseline" fill="black" fill-opacity="1" font-family="Arial" font-size="20.0px" id="rotated-text-association-target" text-anchor="start" transform="rotate(-90 162.0 401.0)" x="162.0" y="401.0">tasks</text>
      <text class="edgeUnselected" dominant-baseline="baseline" fill="black" fill-opacity="1" font-family="Arial" font-size="20.0px" id="non-rotated-text-association-target" text-anchor="start" x="182.0" y="401.0">*</text>
    </g>
    <g>
      <g>
        <path class="arrowUnselected" d="M 172.00, 431.00 L 149.50, 416.00 L 127.00, 431.00 L 149.50, 446.00 Z " fill-opacity="0" stroke-opacity="0" transform="rotate(90 172.0 431.0)"/>
        <g>
          <path class="arrowUnselected" d="M 172.00, 386.00 L 157.00, 378.50 L 157.00, 393.50 Z " fill-opacity="0" stroke-opacity="0" transform="rotate(90 172.0 386.0)"/>
        </g>
        <text class="edgeUnselected" dominant-baseline="hanging" fill="black" fill-opacity="0" font-family="Arial" font-size="20.0px" id="rotated-text-composition-target" text-anchor="start" transform="rotate(-90 182.0 356.0)" x="182.0" y="356.0">tasks</text>
      </g>
    </g>
  </g>
  <g>
    <g>
      <path class="edgeUnselected" d="M 405.00, 560.00 L 648.00, 560.00 "/>
      <text class="edgeUnselected" fill="black" font-family="Arial" font-size="20.0px" text-anchor="middle" transform="rotate(0.0 526.5 550.0)" x="526.5" y="550.0"/>
    </g>
    <g>
      <g>
        <path class="arrowUnselected" d="M 405.00, 560.00 L 390.00, 552.50 L 390.00, 567.50 Z " fill-opacity="1" stroke-opacity="1" transform="rotate(180 405.0 560.0)"/>
      </g>
      <text class="edgeUnselected" dominant-baseline="baseline" fill="black" fill-opacity="1" font-family="Arial" font-size="20.0px" id="rotated-text-association-source" text-anchor="start" transform="rotate(0 435.0 550.0)" x="435.0" y="550.0">tasks</text>
      <text class="edgeUnselected" dominant-baseline="hanging" fill="black" fill-opacity="1" font-family="Arial" font-size="20.0px" id="non-rotated-text-association-source" text-anchor="start" x="435.0" y="570.0">*</text>
    </g>
    <g>
      <g>
        <path class="arrowUnselected" d="M 405.00, 560.00 L 382.50, 545.00 L 360.00, 560.00 L 382.50, 575.00 Z " fill-opacity="0" stroke-opacity="0" transform="rotate(180 405.0 560.0)"/>
        <g>
          <path class="arrowUnselected" d="M 450.00, 560.00 L 435.00, 552.50 L 435.00, 567.50 Z " fill-opacity="0" stroke-opacity="0" transform="rotate(180 450.0 560.0)"/>
        </g>
        <text class="edgeUnselected" dominant-baseline="hanging" fill="black" fill-opacity="0" font-family="Arial" font-size="20.0px" id="rotated-text-composition-source" text-anchor="start" transform="rotate(0 480.0 570.0)" x="480.0" y="570.0">tasks</text>
      </g>
    </g>
    <g>
      <g>
        <path class="arrowUnselected" d="M 648.00, 560.00 L 633.00, 552.50 L 633.00, 567.50 Z " fill-opacity="1" stroke-opacity="1" transform="rotate(0 648.0 560.0)"/>
      </g>
      <text class="edgeUnselected" dominant-baseline="baseline" fill="black" fill-opacity="1" font-family="Arial" font-size="20.0px" id="rotated-text-association-target" text-anchor="end" transform="rotate(0 618.0 550.0)" x="618.0" y="550.0">project</text>
      <text class="edgeUnselected" dominant-baseline="hanging" fill="black" fill-opacity="1" font-family="Arial" font-size="20.0px" id="non-rotated-text-association-target" text-anchor="end" x="618.0" y="570.0">1</text>
    </g>
    <g>
      <g>
        <path class="arrowUnselected" d="M 648.00, 560.00 L 625.50, 545.00 L 603.00, 560.00 L 625.50, 575.00 Z " fill-opacity="0" stroke-opacity="0" transform="rotate(0 648.0 560.0)"/>
        <g>
          <path class="arrowUnselected" d="M 603.00, 560.00 L 588.00, 552.50 L 588.00, 567.50 Z " fill-opacity="0" stroke-opacity="0" transform="rotate(0 603.0 560.0)"/>
        </g>
        <text class="edgeUnselected" dominant-baseline="baseline" fill="black" fill-opacity="0" font-family="Arial" font-size="20.0px" id="rotated-text-composition-target" text-anchor="end" transform="rotate(0 573.0 550.0)" x="573.0" y="550.0">project</text>
      </g>
    </g>
  </g>
  <g>
    <rect class="class-rect" fill="white" height="208.0" stroke="black" width="221.0" x="1092.0" y="0.0"/>
    <text class="clickable-class-component" dy="0.7em" fill="black" font-family="Arial" font-size="20.0px" opacity="1.0" x="1097.0" y="10.0">MyOrganizer</text>
    <path class="inter-class-separator" d="M 1092.00, 35.00 L 1227.00, 35.00 L 1237.00, 0.00 " fill="none" opacity="1.0" stroke="black"/>
    <text dy="0.7em" fill="black" font-family="Arial" font-size="40.0px" text-anchor="middle" x="1202.5" y="40.0">«enum»</text>
    <text dy="0.7em" fill="black" font-family="Arial" font-size="40.0px" font-weight="bold" text-anchor="middle" x="1202.5" y="85.0">Status</text>
    <line class="inner-class-separator" opacity="1.0" stroke="black" x1="1092.0" x2="1313.0" y1="130.0" y2="130.0"/>
    <g>
      <text dy="0.7em" fill="black" font-family="Arial" font-size="20.0px" x="1097.0" y="135.0">PROCESSING</text>
      <text dy="0.7em" fill="black" font-family="Arial" font-size="20.0px" x="1097.0" y="160.0">DONE</text>
      <text dy="0.7em" fill="black" font-family="Arial" font-size="20.0px" x="1097.0" y="185.0">OPEN</text>
    </g>
    <line class="inner-class-separator" opacity="0.0" stroke="black" x1="1092.0" x2="1313.0" y1="210.0" y2="210.0"/>
    <g/>
    <line class="inner-class-separator" opacity="0.0" stroke="black" x1="1092.0" x2="1313.0" y1="210.0" y2="210.0"/>
    <g/>
  </g>
  <g>
    <rect class="class-rect" fill="white" height="204.0" stroke="black" width="306.0" x="667.0" y="0.0"/>
    <text dy="0.7em" fill="black" font-family="Arial" font-size="20.0px" opacity="1.0" x="672.0" y="10.0">MyOrganizer</text>
    <path class="inter-class-separator" d="M 667.00, 35.00 L 802.00, 35.00 L 812.00, 0.00 " fill="none" opacity="1.0" stroke="black"/>
    <text dy="0.7em" fill="black" font-family="Arial" font-size="40.0px" opacity="1.0" text-anchor="middle" x="820.0" y="40.0">«abstract»</text>
    <text dy="0.7em" fill="black" font-family="Arial" font-size="40.0px" font-weight="bold" text-anchor="middle" x="820.0" y="85.0">Asset</text>
    <line class="inner-class-separator" opacity="1.0" stroke="black" x1="667.0" x2="973.0" y1="130.0" y2="130.0"/>
    <g/>
    <line class="inner-class-separator" opacity="1.0" stroke="black" x1="667.0" x2="973.0" y1="155.0" y2="155.0"/>
    <g>
      <text dy="0.7em" fill="black" font-family="Arial" font-size="20.0px" text-decoration="" x="672.0" y="160.0">+  abstract void process();
</text>
    </g>
  </g>
  <g>
    <rect class="class-rect" fill="white" height="258.0" stroke="black" width="346.0" x="59.0" y="431.0"/>
    <text dy="0.7em" fill="black" font-family="Arial" font-size="20.0px" opacity="1.0" x="64.0" y="441.0">MyOrganizer</text>
    <path class="inter-class-separator" d="M 59.00, 466.00 L 194.00, 466.00 L 204.00, 431.00 " fill="none" opacity="1.0" stroke="black"/>
    <text dy="0.7em" fill="black" font-family="Arial" font-size="40.0px" opacity="1.0" text-anchor="middle" x="232.0" y="471.0">«abstract»</text>
    <text dy="0.7em" fill="black" font-family="Arial" font-size="40.0px" font-weight="bold" text-anchor="middle" x="232.0" y="516.0">Task</text>
    <line class="inner-class-separator" opacity="1.0" stroke="black" x1="59.0" x2="405.0" y1="561.0" y2="561.0"/>
    <g>
      <text dy="0.7em" fill="black" font-family="Arial" font-size="20.0px" text-decoration="" x="64.0" y="566.0">+  Status taskStatus;
</text>
      <text dy="0.7em" fill="black" font-family="Arial" font-size="20.0px" text-decoration="" x="64.0" y="591.0">+  MyOrganizer.Project project;
</text>
    </g>
    <line class="inner-class-separator" opacity="1.0" stroke="black" x1="59.0" x2="405.0" y1="616.0" y2="616.0"/>
    <g>
      <text dy="0.7em" fill="black" font-family="Arial" font-size="20.0px" text-decoration="" x="64.0" y="621.0">+  abstract void process();
</text>
    </g>
  </g>
  <g>
    <rect class="class-rect" fill="white" height="312.0" stroke="black" width="344.0" x="648.0" y="404.0"/>
    <text dy="0.7em" fill="black" font-family="Arial" font-size="20.0px" opacity="1.0" x="653.0" y="414.0">MyOrganizer</text>
    <path class="inter-class-separator" d="M 648.00, 439.00 L 783.00, 439.00 L 793.00, 404.00 " fill="none" opacity="1.0" stroke="black"/>
    <text dy="0.7em" fill="black" font-family="Arial" font-size="40.0px" opacity="1.0" text-anchor="middle" x="820.0" y="444.0">«abstract»</text>
    <text dy="0.7em" fill="black" font-family="Arial" font-size="40.0px" font-weight="bold" text-anchor="middle" x="820.0" y="489.0">Project</text>
    <line class="inner-class-separator" opacity="1.0" stroke="black" x1="648.0" x2="992.0" y1="534.0" y2="534.0"/>
    <g>
      <text dy="0.7em" fill="black" font-family="Arial" font-size="20.0px" text-decoration="" x="653.0" y="539.0">+  String projectName;
</text>
      <text dy="0.7em" fill="black" font-family="Arial" font-size="20.0px" text-decoration="" x="653.0" y="564.0">-  Optional&lt;Date&gt;deadline;
</text>
      <text dy="0.7em" fill="black" font-family="Arial" font-size="20.0px" text-decoration="" x="653.0" y="589.0">#  double budget;
</text>
      <text dy="0.7em" fill="black" font-family="Arial" font-size="20.0px" text-decoration="" x="653.0" y="614.0">+  Set&lt;MyOrganizer.Task&gt;tasks;
</text>
    </g>
    <line class="inner-class-separator" opacity="1.0" stroke="black" x1="648.0" x2="992.0" y1="639.0" y2="639.0"/>
    <g>
      <text dy="0.7em" fill="black" font-family="Arial" font-size="20.0px" text-decoration="" x="653.0" y="644.0">+  abstract void process();
</text>
    </g>
  </g>
  <g>
    <rect class="class-rect" fill="white" height="186.0" stroke="black" width="344.0" x="0.0" y="36.0"/>
    <text dy="0.7em" fill="black" font-family="Arial" font-size="20.0px" opacity="1.0" x="5.0" y="46.0">MyOrganizer</text>
    <path class="inter-class-separator" d="M 0.00, 71.00 L 135.00, 71.00 L 145.00, 36.00 " fill="none" opacity="1.0" stroke="black"/>
    <text dy="0.7em" fill="black" font-family="Arial" font-size="40.0px" opacity="0.0" text-anchor="middle" x="172.0" y="76.0"/>
    <text dy="0.7em" fill="black" font-family="Arial" font-size="40.0px" font-weight="bold" text-anchor="middle" x="172.0" y="76.0">Day</text>
    <line class="inner-class-separator" opacity="1.0" stroke="black" x1="0.0" x2="344.0" y1="121.0" y2="121.0"/>
    <g>
      <text dy="0.7em" fill="black" font-family="Arial" font-size="20.0px" text-decoration="" x="5.0" y="126.0">+  Date date;
</text>
      <text dy="0.7em" fill="black" font-family="Arial" font-size="20.0px" text-decoration="" x="5.0" y="151.0">+  Set&lt;MyOrganizer.Task&gt;tasks;
</text>
    </g>
    <line class="inner-class-separator" opacity="1.0" stroke="black" x1="0.0" x2="344.0" y1="176.0" y2="176.0"/>
    <g/>
  </g>
  <g>
    <path d="M 1393.00, 10.00 L 1393.00, 40.00 L 1343.00, 40.00 L 1343.00, 0.00 L 1383.00, 0.00 L 1393.00, 10.00 L 1385.00, 8.00 L 1383.00, 0.00 " fill="none" stroke="black" stroke-linejoin="round"/>
    <text class="cd-tag-text" dominant-baseline="hanging" fill="black" font-family="Arial" font-size="20px" text-anchor="middle" x="1368.0" y="13.0">CD</text>
  </g>
  <style>/* Edge lines / Rect lines */

path.edgeUnselected {
    stroke: black;
    stroke-width: 2px;
    fill: none;
}

path.arrowUnselected {
    stroke: black;
    stroke-width: 1px;
    fill: black;
}

path.arrowInheritanceUnselected {
    stroke: black;
    stroke-width: 2px;
    fill: white;
}

rect.class-rect, path.cd-tag {
    stroke-width: 2px;
}

path.inter-class-separator, line.inner-class-separator {
    stroke-width: 2px;
}</style>
</svg>
