<?xml version="1.0" encoding="UTF-8" standalone="no"?><svg xmlns="http://www.w3.org/2000/svg" xmlns:xlink="http://www.w3.org/1999/xlink" contentScriptType="application/ecmascript" contentStyleType="text/css" height="461px" preserveAspectRatio="none" style="width:477px;height:461px;" version="1.1" viewBox="0 0 477 461" width="477px" zoomAndPan="magnify"><defs><filter height="300%" id="f1g26eyxchkyy2" width="300%" x="-1" y="-1"><feGaussianBlur result="blurOut" stdDeviation="2.0"/><feColorMatrix in="blurOut" result="blurOut2" type="matrix" values="0 0 0 0 0 0 0 0 0 0 0 0 0 0 0 0 0 0 .4 0"/><feOffset dx="4.0" dy="4.0" in="blurOut2" result="blurOut3"/><feBlend in="SourceGraphic" in2="blurOut3" mode="normal"/></filter></defs><g><rect fill="#FFFFFF" height="27.6094" rx="5" ry="5" style="stroke: #000000; stroke-width: 1.0;" width="143" x="307" y="8"/><text fill="#000000" font-family="sans-serif" font-size="14" lengthAdjust="spacingAndGlyphs" textLength="131" x="313" y="27.5332">monticore.MyLife CD</text><!--MD5=[aa0576d3431624127e2fdcc4bb133465]
cluster monticore--><polygon fill="#FFFFFF" filter="url(#f1g26eyxchkyy2)" points="16,50.6094,93,50.6094,100,74.2188,172,74.2188,172,192.6094,16,192.6094,16,50.6094" style="stroke: #000000; stroke-width: 1.5;"/><line style="stroke: #000000; stroke-width: 1.5;" x1="16" x2="100" y1="74.2188" y2="74.2188"/><text fill="#000000" font-family="sans-serif" font-size="14" font-weight="bold" lengthAdjust="spacingAndGlyphs" textLength="71" x="20" y="67.1426">monticore</text><!--MD5=[e0d85978b2e87a41b8d9d2e8f725fabf]
cluster uni--><polygon fill="#FFFFFF" filter="url(#f1g26eyxchkyy2)" points="206,52.6094,234,52.6094,241,76.2188,455,76.2188,455,431.6094,206,431.6094,206,52.6094" style="stroke: #000000; stroke-width: 1.5;"/><line style="stroke: #000000; stroke-width: 1.5;" x1="206" x2="241" y1="76.2188" y2="76.2188"/><text fill="#000000" font-family="sans-serif" font-size="14" font-weight="bold" lengthAdjust="spacingAndGlyphs" textLength="22" x="210" y="69.1426">uni</text><!--MD5=[1f78b86b12aafbf447bc314176e98c59]
cluster monticore.monticore--><polygon fill="#FFFFFF" filter="url(#f1g26eyxchkyy2)" points="20,216.6094,172,216.6094,179,240.2188,182,240.2188,182,316.6094,20,316.6094,20,216.6094" style="stroke: #000000; stroke-width: 1.5;"/><line style="stroke: #000000; stroke-width: 1.5;" x1="20" x2="179" y1="240.2188" y2="240.2188"/><text fill="#000000" font-family="sans-serif" font-size="14" font-weight="bold" lengthAdjust="spacingAndGlyphs" textLength="146" x="24" y="233.1426">monticore.monticore</text><!--MD5=[9e8193eaeab0e60a7d432478ad7caf0a]
class monticore.Person--><rect fill="#FEFECE" filter="url(#f1g26eyxchkyy2)" height="89.5078" id="monticore.Person" style="stroke: #A80036; stroke-width: 1.5;" width="124" x="32" y="86.6094"/><ellipse cx="70.4" cy="102.6094" fill="#ADD1B2" rx="11" ry="11" style="stroke: #A80036; stroke-width: 1.0;"/><path d="M73.1656,98.4844 Q73.3219,98.2656 73.5094,98.1563 Q73.6969,98.0469 73.9156,98.0469 Q74.2906,98.0469 74.525,98.3047 Q74.7594,98.5625 74.7594,99.1719 L74.7594,100.625 Q74.7594,101.2344 74.525,101.5 Q74.2906,101.7656 73.9156,101.7656 Q73.5719,101.7656 73.3688,101.5625 Q73.1656,101.375 73.0563,100.8594 Q73.0094,100.5 72.8219,100.3125 Q72.4938,99.9375 71.8844,99.7188 Q71.275,99.5 70.65,99.5 Q69.8844,99.5 69.2516,99.8281 Q68.6188,100.1563 68.1266,100.9063 Q67.6344,101.6563 67.6344,102.6875 L67.6344,103.7813 Q67.6344,105.0156 68.525,105.8359 Q69.4156,106.6563 71.0094,106.6563 Q71.9469,106.6563 72.6031,106.4063 Q72.9938,106.25 73.4156,105.8125 Q73.6813,105.5469 73.8297,105.4688 Q73.9781,105.3906 74.1813,105.3906 Q74.5094,105.3906 74.7672,105.6484 Q75.025,105.9063 75.025,106.25 Q75.025,106.5938 74.6813,107 Q74.1813,107.5781 73.3844,107.9063 Q72.3063,108.3594 71.0094,108.3594 Q69.4938,108.3594 68.2906,107.7344 Q67.3063,107.2344 66.6188,106.1641 Q65.9313,105.0938 65.9313,103.8125 L65.9313,102.6563 Q65.9313,101.3281 66.5484,100.1797 Q67.1656,99.0313 68.2594,98.4141 Q69.3531,97.7969 70.5875,97.7969 Q71.3219,97.7969 71.9703,97.9609 Q72.6188,98.125 73.1656,98.4844 Z "/><text fill="#000000" font-family="sans-serif" font-size="12" lengthAdjust="spacingAndGlyphs" textLength="40" x="89.6" y="107.5195">Person</text><line style="stroke: #A80036; stroke-width: 1.5;" x1="33" x2="155" y1="118.6094" y2="118.6094"/><text fill="#000000" font-family="sans-serif" font-size="11" lengthAdjust="spacingAndGlyphs" textLength="32" x="38" y="134.0283">int age</text><text fill="#000000" font-family="sans-serif" font-size="11" lengthAdjust="spacingAndGlyphs" textLength="64" x="38" y="147.8643">Date birthday</text><text fill="#000000" font-family="sans-serif" font-size="11" lengthAdjust="spacingAndGlyphs" textLength="112" x="38" y="161.7002">List&lt;String&gt; nickNames</text><line style="stroke: #A80036; stroke-width: 1.5;" x1="33" x2="155" y1="168.1172" y2="168.1172"/><!--MD5=[6c0ad54197d5944566369392f474afa4]
class uni.Student--><rect fill="#FEFECE" filter="url(#f1g26eyxchkyy2)" height="61.8359" id="uni.Student" style="stroke: #A80036; stroke-width: 1.5;" width="113" x="325.5" y="245.6094"/><ellipse cx="358.05" cy="261.6094" fill="#ADD1B2" rx="11" ry="11" style="stroke: #A80036; stroke-width: 1.0;"/><path d="M360.8156,257.4844 Q360.9719,257.2656 361.1594,257.1563 Q361.3469,257.0469 361.5656,257.0469 Q361.9406,257.0469 362.175,257.3047 Q362.4094,257.5625 362.4094,258.1719 L362.4094,259.625 Q362.4094,260.2344 362.175,260.5 Q361.9406,260.7656 361.5656,260.7656 Q361.2219,260.7656 361.0188,260.5625 Q360.8156,260.375 360.7063,259.8594 Q360.6594,259.5 360.4719,259.3125 Q360.1438,258.9375 359.5344,258.7188 Q358.925,258.5 358.3,258.5 Q357.5344,258.5 356.9016,258.8281 Q356.2688,259.1563 355.7766,259.9063 Q355.2844,260.6563 355.2844,261.6875 L355.2844,262.7813 Q355.2844,264.0156 356.175,264.8359 Q357.0656,265.6563 358.6594,265.6563 Q359.5969,265.6563 360.2531,265.4063 Q360.6438,265.25 361.0656,264.8125 Q361.3313,264.5469 361.4797,264.4688 Q361.6281,264.3906 361.8313,264.3906 Q362.1594,264.3906 362.4172,264.6484 Q362.675,264.9063 362.675,265.25 Q362.675,265.5938 362.3313,266 Q361.8313,266.5781 361.0344,266.9063 Q359.9563,267.3594 358.6594,267.3594 Q357.1438,267.3594 355.9406,266.7344 Q354.9563,266.2344 354.2688,265.1641 Q353.5813,264.0938 353.5813,262.8125 L353.5813,261.6563 Q353.5813,260.3281 354.1984,259.1797 Q354.8156,258.0313 355.9094,257.4141 Q357.0031,256.7969 358.2375,256.7969 Q358.9719,256.7969 359.6203,256.9609 Q360.2688,257.125 360.8156,257.4844 Z "/><text fill="#000000" font-family="sans-serif" font-size="12" lengthAdjust="spacingAndGlyphs" textLength="42" x="375.95" y="266.5195">Student</text><line style="stroke: #A80036; stroke-width: 1.5;" x1="326.5" x2="437.5" y1="277.6094" y2="277.6094"/><text fill="#000000" font-family="sans-serif" font-size="11" lengthAdjust="spacingAndGlyphs" textLength="101" x="331.5" y="293.0283">StudentStatus status</text><line style="stroke: #A80036; stroke-width: 1.5;" x1="326.5" x2="437.5" y1="299.4453" y2="299.4453"/><!--MD5=[2699c4caccb57359a9a5822e649b3995]
class uni.Person--><rect fill="#FEFECE" filter="url(#f1g26eyxchkyy2)" height="48" id="uni.Person" style="stroke: #A80036; stroke-width: 1.5;" width="72" x="367" y="107.6094"/><ellipse cx="382" cy="123.6094" fill="#ADD1B2" rx="11" ry="11" style="stroke: #A80036; stroke-width: 1.0;"/><path d="M384.7656,119.4844 Q384.9219,119.2656 385.1094,119.1563 Q385.2969,119.0469 385.5156,119.0469 Q385.8906,119.0469 386.125,119.3047 Q386.3594,119.5625 386.3594,120.1719 L386.3594,121.625 Q386.3594,122.2344 386.125,122.5 Q385.8906,122.7656 385.5156,122.7656 Q385.1719,122.7656 384.9688,122.5625 Q384.7656,122.375 384.6563,121.8594 Q384.6094,121.5 384.4219,121.3125 Q384.0938,120.9375 383.4844,120.7188 Q382.875,120.5 382.25,120.5 Q381.4844,120.5 380.8516,120.8281 Q380.2188,121.1563 379.7266,121.9063 Q379.2344,122.6563 379.2344,123.6875 L379.2344,124.7813 Q379.2344,126.0156 380.125,126.8359 Q381.0156,127.6563 382.6094,127.6563 Q383.5469,127.6563 384.2031,127.4063 Q384.5938,127.25 385.0156,126.8125 Q385.2813,126.5469 385.4297,126.4688 Q385.5781,126.3906 385.7813,126.3906 Q386.1094,126.3906 386.3672,126.6484 Q386.625,126.9063 386.625,127.25 Q386.625,127.5938 386.2813,128 Q385.7813,128.5781 384.9844,128.9063 Q383.9063,129.3594 382.6094,129.3594 Q381.0938,129.3594 379.8906,128.7344 Q378.9063,128.2344 378.2188,127.1641 Q377.5313,126.0938 377.5313,124.8125 L377.5313,123.6563 Q377.5313,122.3281 378.1484,121.1797 Q378.7656,120.0313 379.8594,119.4141 Q380.9531,118.7969 382.1875,118.7969 Q382.9219,118.7969 383.5703,118.9609 Q384.2188,119.125 384.7656,119.4844 Z "/><text fill="#000000" font-family="sans-serif" font-size="12" lengthAdjust="spacingAndGlyphs" textLength="40" x="396" y="128.5195">Person</text><line style="stroke: #A80036; stroke-width: 1.5;" x1="368" x2="438" y1="139.6094" y2="139.6094"/><line style="stroke: #A80036; stroke-width: 1.5;" x1="368" x2="438" y1="147.6094" y2="147.6094"/><!--MD5=[2537c189198f4fdab64225b396ccc93f]
class uni.StudentStatus--><rect fill="#FEFECE" filter="url(#f1g26eyxchkyy2)" height="85.5078" id="uni.StudentStatus" style="stroke: #A80036; stroke-width: 1.5;" width="109" x="222.5" y="88.6094"/><ellipse cx="237.5" cy="104.6094" fill="#EB937F" rx="11" ry="11" style="stroke: #A80036; stroke-width: 1.0;"/><path d="M236.3594,105.4063 L236.3594,107.9063 L240.6875,107.9063 L240.6875,106.9844 Q240.6875,106.375 240.9297,106.1094 Q241.1719,105.8438 241.5469,105.8438 Q241.9219,105.8438 242.1563,106.1094 Q242.3906,106.375 242.3906,106.9844 L242.3906,109.6094 L234.3906,109.6094 Q233.7656,109.6094 233.5078,109.375 Q233.25,109.1406 233.25,108.75 Q233.25,108.375 233.5156,108.1406 Q233.7813,107.9063 234.3906,107.9063 L234.6563,107.9063 L234.6563,101.25 L234.3906,101.25 Q233.7656,101.25 233.5078,101.0156 Q233.25,100.7813 233.25,100.3906 Q233.25,100.0156 233.5078,99.7813 Q233.7656,99.5469 234.3906,99.5469 L242.0156,99.5469 L242.0156,102.1406 Q242.0156,102.75 241.7891,103.0078 Q241.5625,103.2656 241.1719,103.2656 Q240.7969,103.2656 240.5625,103.0078 Q240.3281,102.75 240.3281,102.1406 L240.3281,101.25 L236.3594,101.25 L236.3594,103.7031 L237.8438,103.7031 Q237.8438,103.0469 237.9688,102.8594 Q238.2344,102.4531 238.7031,102.4531 Q239.0781,102.4531 239.3125,102.7109 Q239.5469,102.9688 239.5469,103.5781 L239.5469,105.5469 Q239.5469,106.0938 239.4219,106.2813 Q239.1563,106.6719 238.7031,106.6719 Q238.2344,106.6719 237.9688,106.2656 Q237.8438,106.0781 237.8438,105.4063 L236.3594,105.4063 Z "/><text fill="#000000" font-family="sans-serif" font-size="12" lengthAdjust="spacingAndGlyphs" textLength="77" x="251.5" y="109.5195">StudentStatus</text><line style="stroke: #A80036; stroke-width: 1.5;" x1="223.5" x2="330.5" y1="120.6094" y2="120.6094"/><text fill="#000000" font-family="sans-serif" font-size="11" lengthAdjust="spacingAndGlyphs" textLength="53" x="228.5" y="153.8643">ENROLLED</text><text fill="#000000" font-family="sans-serif" font-size="11" lengthAdjust="spacingAndGlyphs" textLength="44" x="228.5" y="167.7002">FINISHED</text><line style="stroke: #A80036; stroke-width: 1.5;" x1="223.5" x2="238" y1="135.5273" y2="135.5273"/><text fill="#000000" font-family="sans-serif" font-size="11" lengthAdjust="spacingAndGlyphs" textLength="78" x="238" y="139.5283">Enum Constants</text><line style="stroke: #A80036; stroke-width: 1.5;" x1="316" x2="330.5" y1="135.5273" y2="135.5273"/><!--MD5=[b4cd16b850d88d2d57829972da812a45]
class uni.Address--><rect fill="#FEFECE" filter="url(#f1g26eyxchkyy2)" height="48" id="uni.Address" style="stroke: #A80036; stroke-width: 1.5;" width="78" x="343" y="367.6094"/><ellipse cx="358" cy="383.6094" fill="#ADD1B2" rx="11" ry="11" style="stroke: #A80036; stroke-width: 1.0;"/><path d="M360.7656,379.4844 Q360.9219,379.2656 361.1094,379.1563 Q361.2969,379.0469 361.5156,379.0469 Q361.8906,379.0469 362.125,379.3047 Q362.3594,379.5625 362.3594,380.1719 L362.3594,381.625 Q362.3594,382.2344 362.125,382.5 Q361.8906,382.7656 361.5156,382.7656 Q361.1719,382.7656 360.9688,382.5625 Q360.7656,382.375 360.6563,381.8594 Q360.6094,381.5 360.4219,381.3125 Q360.0938,380.9375 359.4844,380.7188 Q358.875,380.5 358.25,380.5 Q357.4844,380.5 356.8516,380.8281 Q356.2188,381.1563 355.7266,381.9063 Q355.2344,382.6563 355.2344,383.6875 L355.2344,384.7813 Q355.2344,386.0156 356.125,386.8359 Q357.0156,387.6563 358.6094,387.6563 Q359.5469,387.6563 360.2031,387.4063 Q360.5938,387.25 361.0156,386.8125 Q361.2813,386.5469 361.4297,386.4688 Q361.5781,386.3906 361.7813,386.3906 Q362.1094,386.3906 362.3672,386.6484 Q362.625,386.9063 362.625,387.25 Q362.625,387.5938 362.2813,388 Q361.7813,388.5781 360.9844,388.9063 Q359.9063,389.3594 358.6094,389.3594 Q357.0938,389.3594 355.8906,388.7344 Q354.9063,388.2344 354.2188,387.1641 Q353.5313,386.0938 353.5313,384.8125 L353.5313,383.6563 Q353.5313,382.3281 354.1484,381.1797 Q354.7656,380.0313 355.8594,379.4141 Q356.9531,378.7969 358.1875,378.7969 Q358.9219,378.7969 359.5703,378.9609 Q360.2188,379.125 360.7656,379.4844 Z "/><text fill="#000000" font-family="sans-serif" font-size="12" lengthAdjust="spacingAndGlyphs" textLength="46" x="372" y="388.5195">Address</text><line style="stroke: #A80036; stroke-width: 1.5;" x1="344" x2="420" y1="399.6094" y2="399.6094"/><line style="stroke: #A80036; stroke-width: 1.5;" x1="344" x2="420" y1="407.6094" y2="407.6094"/><!--MD5=[071a064f50780af0971252e6a3bfe2a2]
class monticore.monticore.Person--><rect fill="#FEFECE" filter="url(#f1g26eyxchkyy2)" height="48" id="monticore.monticore.Person" style="stroke: #A80036; stroke-width: 1.5;" width="72" x="58" y="252.6094"/><ellipse cx="73" cy="268.6094" fill="#ADD1B2" rx="11" ry="11" style="stroke: #A80036; stroke-width: 1.0;"/><path d="M75.7656,264.4844 Q75.9219,264.2656 76.1094,264.1563 Q76.2969,264.0469 76.5156,264.0469 Q76.8906,264.0469 77.125,264.3047 Q77.3594,264.5625 77.3594,265.1719 L77.3594,266.625 Q77.3594,267.2344 77.125,267.5 Q76.8906,267.7656 76.5156,267.7656 Q76.1719,267.7656 75.9688,267.5625 Q75.7656,267.375 75.6563,266.8594 Q75.6094,266.5 75.4219,266.3125 Q75.0938,265.9375 74.4844,265.7188 Q73.875,265.5 73.25,265.5 Q72.4844,265.5 71.8516,265.8281 Q71.2188,266.1563 70.7266,266.9063 Q70.2344,267.6563 70.2344,268.6875 L70.2344,269.7813 Q70.2344,271.0156 71.125,271.8359 Q72.0156,272.6563 73.6094,272.6563 Q74.5469,272.6563 75.2031,272.4063 Q75.5938,272.25 76.0156,271.8125 Q76.2813,271.5469 76.4297,271.4688 Q76.5781,271.3906 76.7813,271.3906 Q77.1094,271.3906 77.3672,271.6484 Q77.625,271.9063 77.625,272.25 Q77.625,272.5938 77.2813,273 Q76.7813,273.5781 75.9844,273.9063 Q74.9063,274.3594 73.6094,274.3594 Q72.0938,274.3594 70.8906,273.7344 Q69.9063,273.2344 69.2188,272.1641 Q68.5313,271.0938 68.5313,269.8125 L68.5313,268.6563 Q68.5313,267.3281 69.1484,266.1797 Q69.7656,265.0313 70.8594,264.4141 Q71.9531,263.7969 73.1875,263.7969 Q73.9219,263.7969 74.5703,263.9609 Q75.2188,264.125 75.7656,264.4844 Z "/><text fill="#000000" font-family="sans-serif" font-size="12" lengthAdjust="spacingAndGlyphs" textLength="40" x="87" y="273.5195">Person</text><line style="stroke: #A80036; stroke-width: 1.5;" x1="59" x2="129" y1="284.6094" y2="284.6094"/><line style="stroke: #A80036; stroke-width: 1.5;" x1="59" x2="129" y1="292.6094" y2="292.6094"/><!--MD5=[80a2ff04a72b16c4a85996781b4f153f]
reverse link uni.Person to uni.Student--><path d="M402.75,175.8794 C402.75,175.8794 402.75,245.4214 402.75,245.4214 " fill="none" id="uni.Person&lt;-uni.Student" style="stroke: #A80036; stroke-width: 1.0;"/><polygon fill="none" points="395.75,175.8794,402.75,155.8794,409.75,175.8794,395.75,175.8794" style="stroke: #A80036; stroke-width: 1.0;"/><!--MD5=[8fc38c0541188d75ce0beb5e0ad67ce7]
link monticore.Person to monticore.monticore.Person--><path d="M94,188.6934 C94,188.6934 94,240.2324 94,240.2324 " fill="none" id="monticore.Person-monticore.monticore.Person" style="stroke: #A80036; stroke-width: 1.0;"/><polygon fill="#A80036" points="94,252.2324,98,246.2324,94,240.2324,90,246.2324,94,252.2324" style="stroke: #A80036; stroke-width: 1.0;"/><polygon fill="#A80036" points="94,176.6934,90,182.6934,94,188.6934,98,182.6934,94,176.6934" style="stroke: #A80036; stroke-width: 1.0;"/><text fill="#000000" font-family="sans-serif" font-size="13" lengthAdjust="spacingAndGlyphs" textLength="36" x="53.6125" y="241.8784">parent</text><text fill="#000000" font-family="sans-serif" font-size="13" lengthAdjust="spacingAndGlyphs" textLength="27" x="65.1016" y="197.7128">child</text><!--MD5=[61260b0170d07da10bd3170437998dd7]
link uni.Student to uni.Address--><path d="M382,307.7304 C382,307.7304 382,354.3932 382,354.3932 " fill="none" id="uni.Student-&gt;uni.Address" style="stroke: #A80036; stroke-width: 1.0;"/><polygon fill="#A80036" points="382,367.3932,386,361.3932,382,355.3932,378,361.3932,382,367.3932" style="stroke: #A80036; stroke-width: 1.0;"/><text fill="#000000" font-family="sans-serif" font-size="13" lengthAdjust="spacingAndGlyphs" textLength="43" x="334.7672" y="328.9782">student</text><text fill="#000000" font-family="sans-serif" font-size="13" lengthAdjust="spacingAndGlyphs" textLength="46" x="330.1063" y="356.6779">address</text><text fill="#888888" font-family="sans-serif" font-size="10" lengthAdjust="spacingAndGlyphs" textLength="200" x="129.5" y="447.9902">generated with MontiCore using PlantUML</text><!--MD5=[6cca54aafdf2c4357f58d4a692f6c40f]
@startuml
  skinparam linetype ortho
  skinparam classAttributeIconSize 0
  skinparam legend {
    BorderColor black
    BackGroundColor white
  }
  legend top right
    monticore.MyLife CD
  end legend
  namespace monticore {
    class Person {
      {field} int age
      {field} Date birthday
      {field} List<String> nickNames
    }
  }

  namespace uni {
    class Student extends uni.Person {
      {field} StudentStatus status
    }
    enum StudentStatus {
      __ Enum Constants __
      ENROLLED
      FINISHED
    }
  }

  monticore.Person "parent" *- -* "child" monticore.monticore.Person
  uni.Student "student" - -* "address" uni.Address
  center footer generated with MontiCore using PlantUML
@enduml

PlantUML version 1.2020.15(Sun Jun 28 13:39:45 CEST 2020)
(GPL source distribution)
Java Runtime: Java(TM) SE Runtime Environment
JVM: Java HotSpot(TM) 64-Bit Server VM
Default Encoding: Cp1252
Language: de
Country: DE
--></g></svg>
