<?xml version="1.0" encoding="UTF-8" standalone="no"?><svg xmlns="http://www.w3.org/2000/svg" xmlns:xlink="http://www.w3.org/1999/xlink" contentScriptType="application/ecmascript" contentStyleType="text/css" height="519px" preserveAspectRatio="none" style="width:450px;height:519px;" version="1.1" viewBox="0 0 450 519" width="450px" zoomAndPan="magnify"><defs><filter height="300%" id="f1grjr6t81kyg3" width="300%" x="-1" y="-1"><feGaussianBlur result="blurOut" stdDeviation="2.0"/><feColorMatrix in="blurOut" result="blurOut2" type="matrix" values="0 0 0 0 0 0 0 0 0 0 0 0 0 0 0 0 0 0 .4 0"/><feOffset dx="4.0" dy="4.0" in="blurOut2" result="blurOut3"/><feBlend in="SourceGraphic" in2="blurOut3" mode="normal"/></filter></defs><g><rect fill="#FFFFFF" height="27.6094" rx="5" ry="5" style="stroke: #000000; stroke-width: 1.0;" width="143" x="280" y="8"/><text fill="#000000" font-family="sans-serif" font-size="14" lengthAdjust="spacingAndGlyphs" textLength="131" x="286" y="27.5332">monticore.MyLife CD</text><!--MD5=[aa0576d3431624127e2fdcc4bb133465]
cluster monticore--><polygon fill="#FFFFFF" filter="url(#f1grjr6t81kyg3)" points="16,50.6094,93,50.6094,100,74.2188,424,74.2188,424,192.6094,16,192.6094,16,50.6094" style="stroke: #000000; stroke-width: 1.5;"/><line style="stroke: #000000; stroke-width: 1.5;" x1="16" x2="100" y1="74.2188" y2="74.2188"/><text fill="#000000" font-family="sans-serif" font-size="14" font-weight="bold" lengthAdjust="spacingAndGlyphs" textLength="71" x="20" y="67.1426">monticore</text><!--MD5=[e0d85978b2e87a41b8d9d2e8f725fabf]
cluster uni--><polygon fill="#FFFFFF" filter="url(#f1grjr6t81kyg3)" points="68,225.6094,96,225.6094,103,249.2188,428,249.2188,428,489.6094,68,489.6094,68,225.6094" style="stroke: #000000; stroke-width: 1.5;"/><line style="stroke: #000000; stroke-width: 1.5;" x1="68" x2="103" y1="249.2188" y2="249.2188"/><text fill="#000000" font-family="sans-serif" font-size="14" font-weight="bold" lengthAdjust="spacingAndGlyphs" textLength="22" x="72" y="242.1426">uni</text><!--MD5=[9e8193eaeab0e60a7d432478ad7caf0a]
class monticore.Person--><rect fill="#FEFECE" filter="url(#f1grjr6t81kyg3)" height="89.5078" id="monticore.Person" style="stroke: #A80036; stroke-width: 1.5;" width="209" x="180.5" y="86.6094"/><ellipse cx="260.75" cy="102.6094" fill="#ADD1B2" rx="11" ry="11" style="stroke: #A80036; stroke-width: 1.0;"/><path d="M263.5156,98.4844 Q263.6719,98.2656 263.8594,98.1563 Q264.0469,98.0469 264.2656,98.0469 Q264.6406,98.0469 264.875,98.3047 Q265.1094,98.5625 265.1094,99.1719 L265.1094,100.625 Q265.1094,101.2344 264.875,101.5 Q264.6406,101.7656 264.2656,101.7656 Q263.9219,101.7656 263.7188,101.5625 Q263.5156,101.375 263.4063,100.8594 Q263.3594,100.5 263.1719,100.3125 Q262.8438,99.9375 262.2344,99.7188 Q261.625,99.5 261,99.5 Q260.2344,99.5 259.6016,99.8281 Q258.9688,100.1563 258.4766,100.9063 Q257.9844,101.6563 257.9844,102.6875 L257.9844,103.7813 Q257.9844,105.0156 258.875,105.8359 Q259.7656,106.6563 261.3594,106.6563 Q262.2969,106.6563 262.9531,106.4063 Q263.3438,106.25 263.7656,105.8125 Q264.0313,105.5469 264.1797,105.4688 Q264.3281,105.3906 264.5313,105.3906 Q264.8594,105.3906 265.1172,105.6484 Q265.375,105.9063 265.375,106.25 Q265.375,106.5938 265.0313,107 Q264.5313,107.5781 263.7344,107.9063 Q262.6563,108.3594 261.3594,108.3594 Q259.8438,108.3594 258.6406,107.7344 Q257.6563,107.2344 256.9688,106.1641 Q256.2813,105.0938 256.2813,103.8125 L256.2813,102.6563 Q256.2813,101.3281 256.8984,100.1797 Q257.5156,99.0313 258.6094,98.4141 Q259.7031,97.7969 260.9375,97.7969 Q261.6719,97.7969 262.3203,97.9609 Q262.9688,98.125 263.5156,98.4844 Z "/><text fill="#000000" font-family="sans-serif" font-size="12" lengthAdjust="spacingAndGlyphs" textLength="40" x="281.25" y="107.5195">Person</text><line style="stroke: #A80036; stroke-width: 1.5;" x1="181.5" x2="388.5" y1="118.6094" y2="118.6094"/><text fill="#000000" font-family="sans-serif" font-size="11" lengthAdjust="spacingAndGlyphs" textLength="32" x="186.5" y="134.0283">int age</text><text fill="#000000" font-family="sans-serif" font-size="11" lengthAdjust="spacingAndGlyphs" textLength="103" x="186.5" y="147.8643">java.util.Date birthday</text><text fill="#000000" font-family="sans-serif" font-size="11" lengthAdjust="spacingAndGlyphs" textLength="197" x="186.5" y="161.7002">java.util.List&lt;java.lang.String&gt; nickNames</text><line style="stroke: #A80036; stroke-width: 1.5;" x1="181.5" x2="388.5" y1="168.1172" y2="168.1172"/><!--MD5=[338923c44ec1173ca8eb052de760ad37]
class monticore.PhoneNumber--><rect fill="#FEFECE" filter="url(#f1grjr6t81kyg3)" height="48" id="monticore.PhoneNumber" style="stroke: #A80036; stroke-width: 1.5;" width="113" x="32.5" y="107.6094"/><ellipse cx="47.5" cy="123.6094" fill="#ADD1B2" rx="11" ry="11" style="stroke: #A80036; stroke-width: 1.0;"/><path d="M50.2656,119.4844 Q50.4219,119.2656 50.6094,119.1563 Q50.7969,119.0469 51.0156,119.0469 Q51.3906,119.0469 51.625,119.3047 Q51.8594,119.5625 51.8594,120.1719 L51.8594,121.625 Q51.8594,122.2344 51.625,122.5 Q51.3906,122.7656 51.0156,122.7656 Q50.6719,122.7656 50.4688,122.5625 Q50.2656,122.375 50.1563,121.8594 Q50.1094,121.5 49.9219,121.3125 Q49.5938,120.9375 48.9844,120.7188 Q48.375,120.5 47.75,120.5 Q46.9844,120.5 46.3516,120.8281 Q45.7188,121.1563 45.2266,121.9063 Q44.7344,122.6563 44.7344,123.6875 L44.7344,124.7813 Q44.7344,126.0156 45.625,126.8359 Q46.5156,127.6563 48.1094,127.6563 Q49.0469,127.6563 49.7031,127.4063 Q50.0938,127.25 50.5156,126.8125 Q50.7813,126.5469 50.9297,126.4688 Q51.0781,126.3906 51.2813,126.3906 Q51.6094,126.3906 51.8672,126.6484 Q52.125,126.9063 52.125,127.25 Q52.125,127.5938 51.7813,128 Q51.2813,128.5781 50.4844,128.9063 Q49.4063,129.3594 48.1094,129.3594 Q46.5938,129.3594 45.3906,128.7344 Q44.4063,128.2344 43.7188,127.1641 Q43.0313,126.0938 43.0313,124.8125 L43.0313,123.6563 Q43.0313,122.3281 43.6484,121.1797 Q44.2656,120.0313 45.3594,119.4141 Q46.4531,118.7969 47.6875,118.7969 Q48.4219,118.7969 49.0703,118.9609 Q49.7188,119.125 50.2656,119.4844 Z "/><text fill="#000000" font-family="sans-serif" font-size="12" lengthAdjust="spacingAndGlyphs" textLength="81" x="61.5" y="128.5195">PhoneNumber</text><line style="stroke: #A80036; stroke-width: 1.5;" x1="33.5" x2="144.5" y1="139.6094" y2="139.6094"/><line style="stroke: #A80036; stroke-width: 1.5;" x1="33.5" x2="144.5" y1="147.6094" y2="147.6094"/><!--MD5=[6c0ad54197d5944566369392f474afa4]
class uni.Student--><rect fill="#FEFECE" filter="url(#f1grjr6t81kyg3)" height="61.8359" id="uni.Student" style="stroke: #A80036; stroke-width: 1.5;" width="113" x="228.5" y="273.6094"/><ellipse cx="261.05" cy="289.6094" fill="#ADD1B2" rx="11" ry="11" style="stroke: #A80036; stroke-width: 1.0;"/><path d="M263.8156,285.4844 Q263.9719,285.2656 264.1594,285.1563 Q264.3469,285.0469 264.5656,285.0469 Q264.9406,285.0469 265.175,285.3047 Q265.4094,285.5625 265.4094,286.1719 L265.4094,287.625 Q265.4094,288.2344 265.175,288.5 Q264.9406,288.7656 264.5656,288.7656 Q264.2219,288.7656 264.0188,288.5625 Q263.8156,288.375 263.7063,287.8594 Q263.6594,287.5 263.4719,287.3125 Q263.1438,286.9375 262.5344,286.7188 Q261.925,286.5 261.3,286.5 Q260.5344,286.5 259.9016,286.8281 Q259.2688,287.1563 258.7766,287.9063 Q258.2844,288.6563 258.2844,289.6875 L258.2844,290.7813 Q258.2844,292.0156 259.175,292.8359 Q260.0656,293.6563 261.6594,293.6563 Q262.5969,293.6563 263.2531,293.4063 Q263.6438,293.25 264.0656,292.8125 Q264.3313,292.5469 264.4797,292.4688 Q264.6281,292.3906 264.8313,292.3906 Q265.1594,292.3906 265.4172,292.6484 Q265.675,292.9063 265.675,293.25 Q265.675,293.5938 265.3313,294 Q264.8313,294.5781 264.0344,294.9063 Q262.9563,295.3594 261.6594,295.3594 Q260.1438,295.3594 258.9406,294.7344 Q257.9563,294.2344 257.2688,293.1641 Q256.5813,292.0938 256.5813,290.8125 L256.5813,289.6563 Q256.5813,288.3281 257.1984,287.1797 Q257.8156,286.0313 258.9094,285.4141 Q260.0031,284.7969 261.2375,284.7969 Q261.9719,284.7969 262.6203,284.9609 Q263.2688,285.125 263.8156,285.4844 Z "/><text fill="#000000" font-family="sans-serif" font-size="12" lengthAdjust="spacingAndGlyphs" textLength="42" x="278.95" y="294.5195">Student</text><line style="stroke: #A80036; stroke-width: 1.5;" x1="229.5" x2="340.5" y1="305.6094" y2="305.6094"/><text fill="#000000" font-family="sans-serif" font-size="11" lengthAdjust="spacingAndGlyphs" textLength="101" x="234.5" y="321.0283">StudentStatus status</text><line style="stroke: #A80036; stroke-width: 1.5;" x1="229.5" x2="340.5" y1="327.4453" y2="327.4453"/><!--MD5=[a17704529af2203d041ede9137dbc286]
class uni.Grade--><rect fill="#FEFECE" filter="url(#f1grjr6t81kyg3)" height="48" id="uni.Grade" style="stroke: #A80036; stroke-width: 1.5;" width="66" x="84" y="425.6094"/><ellipse cx="99" cy="441.6094" fill="#ADD1B2" rx="11" ry="11" style="stroke: #A80036; stroke-width: 1.0;"/><path d="M101.7656,437.4844 Q101.9219,437.2656 102.1094,437.1563 Q102.2969,437.0469 102.5156,437.0469 Q102.8906,437.0469 103.125,437.3047 Q103.3594,437.5625 103.3594,438.1719 L103.3594,439.625 Q103.3594,440.2344 103.125,440.5 Q102.8906,440.7656 102.5156,440.7656 Q102.1719,440.7656 101.9688,440.5625 Q101.7656,440.375 101.6563,439.8594 Q101.6094,439.5 101.4219,439.3125 Q101.0938,438.9375 100.4844,438.7188 Q99.875,438.5 99.25,438.5 Q98.4844,438.5 97.8516,438.8281 Q97.2188,439.1563 96.7266,439.9063 Q96.2344,440.6563 96.2344,441.6875 L96.2344,442.7813 Q96.2344,444.0156 97.125,444.8359 Q98.0156,445.6563 99.6094,445.6563 Q100.5469,445.6563 101.2031,445.4063 Q101.5938,445.25 102.0156,444.8125 Q102.2813,444.5469 102.4297,444.4688 Q102.5781,444.3906 102.7813,444.3906 Q103.1094,444.3906 103.3672,444.6484 Q103.625,444.9063 103.625,445.25 Q103.625,445.5938 103.2813,446 Q102.7813,446.5781 101.9844,446.9063 Q100.9063,447.3594 99.6094,447.3594 Q98.0938,447.3594 96.8906,446.7344 Q95.9063,446.2344 95.2188,445.1641 Q94.5313,444.0938 94.5313,442.8125 L94.5313,441.6563 Q94.5313,440.3281 95.1484,439.1797 Q95.7656,438.0313 96.8594,437.4141 Q97.9531,436.7969 99.1875,436.7969 Q99.9219,436.7969 100.5703,436.9609 Q101.2188,437.125 101.7656,437.4844 Z "/><text fill="#000000" font-family="sans-serif" font-size="12" lengthAdjust="spacingAndGlyphs" textLength="34" x="113" y="446.5195">Grade</text><line style="stroke: #A80036; stroke-width: 1.5;" x1="85" x2="149" y1="457.6094" y2="457.6094"/><line style="stroke: #A80036; stroke-width: 1.5;" x1="85" x2="149" y1="465.6094" y2="465.6094"/><!--MD5=[2537c189198f4fdab64225b396ccc93f]
class uni.StudentStatus--><rect fill="#FEFECE" filter="url(#f1grjr6t81kyg3)" height="85.5078" id="uni.StudentStatus" style="stroke: #A80036; stroke-width: 1.5;" width="109" x="84.5" y="261.6094"/><ellipse cx="99.5" cy="277.6094" fill="#EB937F" rx="11" ry="11" style="stroke: #A80036; stroke-width: 1.0;"/><path d="M98.3594,278.4063 L98.3594,280.9063 L102.6875,280.9063 L102.6875,279.9844 Q102.6875,279.375 102.9297,279.1094 Q103.1719,278.8438 103.5469,278.8438 Q103.9219,278.8438 104.1563,279.1094 Q104.3906,279.375 104.3906,279.9844 L104.3906,282.6094 L96.3906,282.6094 Q95.7656,282.6094 95.5078,282.375 Q95.25,282.1406 95.25,281.75 Q95.25,281.375 95.5156,281.1406 Q95.7813,280.9063 96.3906,280.9063 L96.6563,280.9063 L96.6563,274.25 L96.3906,274.25 Q95.7656,274.25 95.5078,274.0156 Q95.25,273.7813 95.25,273.3906 Q95.25,273.0156 95.5078,272.7813 Q95.7656,272.5469 96.3906,272.5469 L104.0156,272.5469 L104.0156,275.1406 Q104.0156,275.75 103.7891,276.0078 Q103.5625,276.2656 103.1719,276.2656 Q102.7969,276.2656 102.5625,276.0078 Q102.3281,275.75 102.3281,275.1406 L102.3281,274.25 L98.3594,274.25 L98.3594,276.7031 L99.8438,276.7031 Q99.8438,276.0469 99.9688,275.8594 Q100.2344,275.4531 100.7031,275.4531 Q101.0781,275.4531 101.3125,275.7109 Q101.5469,275.9688 101.5469,276.5781 L101.5469,278.5469 Q101.5469,279.0938 101.4219,279.2813 Q101.1563,279.6719 100.7031,279.6719 Q100.2344,279.6719 99.9688,279.2656 Q99.8438,279.0781 99.8438,278.4063 L98.3594,278.4063 Z "/><text fill="#000000" font-family="sans-serif" font-size="12" lengthAdjust="spacingAndGlyphs" textLength="77" x="113.5" y="282.5195">StudentStatus</text><line style="stroke: #A80036; stroke-width: 1.5;" x1="85.5" x2="192.5" y1="293.6094" y2="293.6094"/><text fill="#000000" font-family="sans-serif" font-size="11" lengthAdjust="spacingAndGlyphs" textLength="53" x="90.5" y="326.8643">ENROLLED</text><text fill="#000000" font-family="sans-serif" font-size="11" lengthAdjust="spacingAndGlyphs" textLength="44" x="90.5" y="340.7002">FINISHED</text><line style="stroke: #A80036; stroke-width: 1.5;" x1="85.5" x2="100" y1="308.5273" y2="308.5273"/><text fill="#000000" font-family="sans-serif" font-size="11" lengthAdjust="spacingAndGlyphs" textLength="78" x="100" y="312.5283">Enum Constants</text><line style="stroke: #A80036; stroke-width: 1.5;" x1="178" x2="192.5" y1="308.5273" y2="308.5273"/><!--MD5=[2b587aebc12f68d31d6c5ac0606819ac]
class uni.PhoneNumber--><rect fill="#FEFECE" filter="url(#f1grjr6t81kyg3)" height="48" id="uni.PhoneNumber" style="stroke: #A80036; stroke-width: 1.5;" width="113" x="185.5" y="425.6094"/><ellipse cx="200.5" cy="441.6094" fill="#ADD1B2" rx="11" ry="11" style="stroke: #A80036; stroke-width: 1.0;"/><path d="M203.2656,437.4844 Q203.4219,437.2656 203.6094,437.1563 Q203.7969,437.0469 204.0156,437.0469 Q204.3906,437.0469 204.625,437.3047 Q204.8594,437.5625 204.8594,438.1719 L204.8594,439.625 Q204.8594,440.2344 204.625,440.5 Q204.3906,440.7656 204.0156,440.7656 Q203.6719,440.7656 203.4688,440.5625 Q203.2656,440.375 203.1563,439.8594 Q203.1094,439.5 202.9219,439.3125 Q202.5938,438.9375 201.9844,438.7188 Q201.375,438.5 200.75,438.5 Q199.9844,438.5 199.3516,438.8281 Q198.7188,439.1563 198.2266,439.9063 Q197.7344,440.6563 197.7344,441.6875 L197.7344,442.7813 Q197.7344,444.0156 198.625,444.8359 Q199.5156,445.6563 201.1094,445.6563 Q202.0469,445.6563 202.7031,445.4063 Q203.0938,445.25 203.5156,444.8125 Q203.7813,444.5469 203.9297,444.4688 Q204.0781,444.3906 204.2813,444.3906 Q204.6094,444.3906 204.8672,444.6484 Q205.125,444.9063 205.125,445.25 Q205.125,445.5938 204.7813,446 Q204.2813,446.5781 203.4844,446.9063 Q202.4063,447.3594 201.1094,447.3594 Q199.5938,447.3594 198.3906,446.7344 Q197.4063,446.2344 196.7188,445.1641 Q196.0313,444.0938 196.0313,442.8125 L196.0313,441.6563 Q196.0313,440.3281 196.6484,439.1797 Q197.2656,438.0313 198.3594,437.4141 Q199.4531,436.7969 200.6875,436.7969 Q201.4219,436.7969 202.0703,436.9609 Q202.7188,437.125 203.2656,437.4844 Z "/><text fill="#000000" font-family="sans-serif" font-size="12" lengthAdjust="spacingAndGlyphs" textLength="81" x="214.5" y="446.5195">PhoneNumber</text><line style="stroke: #A80036; stroke-width: 1.5;" x1="186.5" x2="297.5" y1="457.6094" y2="457.6094"/><line style="stroke: #A80036; stroke-width: 1.5;" x1="186.5" x2="297.5" y1="465.6094" y2="465.6094"/><!--MD5=[b4cd16b850d88d2d57829972da812a45]
class uni.Address--><rect fill="#FEFECE" filter="url(#f1grjr6t81kyg3)" height="48" id="uni.Address" style="stroke: #A80036; stroke-width: 1.5;" width="78" x="334" y="425.6094"/><ellipse cx="349" cy="441.6094" fill="#ADD1B2" rx="11" ry="11" style="stroke: #A80036; stroke-width: 1.0;"/><path d="M351.7656,437.4844 Q351.9219,437.2656 352.1094,437.1563 Q352.2969,437.0469 352.5156,437.0469 Q352.8906,437.0469 353.125,437.3047 Q353.3594,437.5625 353.3594,438.1719 L353.3594,439.625 Q353.3594,440.2344 353.125,440.5 Q352.8906,440.7656 352.5156,440.7656 Q352.1719,440.7656 351.9688,440.5625 Q351.7656,440.375 351.6563,439.8594 Q351.6094,439.5 351.4219,439.3125 Q351.0938,438.9375 350.4844,438.7188 Q349.875,438.5 349.25,438.5 Q348.4844,438.5 347.8516,438.8281 Q347.2188,439.1563 346.7266,439.9063 Q346.2344,440.6563 346.2344,441.6875 L346.2344,442.7813 Q346.2344,444.0156 347.125,444.8359 Q348.0156,445.6563 349.6094,445.6563 Q350.5469,445.6563 351.2031,445.4063 Q351.5938,445.25 352.0156,444.8125 Q352.2813,444.5469 352.4297,444.4688 Q352.5781,444.3906 352.7813,444.3906 Q353.1094,444.3906 353.3672,444.6484 Q353.625,444.9063 353.625,445.25 Q353.625,445.5938 353.2813,446 Q352.7813,446.5781 351.9844,446.9063 Q350.9063,447.3594 349.6094,447.3594 Q348.0938,447.3594 346.8906,446.7344 Q345.9063,446.2344 345.2188,445.1641 Q344.5313,444.0938 344.5313,442.8125 L344.5313,441.6563 Q344.5313,440.3281 345.1484,439.1797 Q345.7656,438.0313 346.8594,437.4141 Q347.9531,436.7969 349.1875,436.7969 Q349.9219,436.7969 350.5703,436.9609 Q351.2188,437.125 351.7656,437.4844 Z "/><text fill="#000000" font-family="sans-serif" font-size="12" lengthAdjust="spacingAndGlyphs" textLength="46" x="363" y="446.5195">Address</text><line style="stroke: #A80036; stroke-width: 1.5;" x1="335" x2="411" y1="457.6094" y2="457.6094"/><line style="stroke: #A80036; stroke-width: 1.5;" x1="335" x2="411" y1="465.6094" y2="465.6094"/><!--MD5=[ab4817ece20d0cad4faf8857521b8362]
reverse link monticore.Person to uni.Student--><path d="M285,196.6114 C285,196.6114 285,273.4684 285,273.4684 " fill="none" id="monticore.Person&lt;-uni.Student" style="stroke: #A80036; stroke-width: 1.0;"/><polygon fill="none" points="278,196.6114,285,176.6114,292,196.6114,278,196.6114" style="stroke: #A80036; stroke-width: 1.0;"/><!--MD5=[0913c68ba2988796a83c602017d16c93]
link uni.Student to uni.PhoneNumber--><path d="M275.167,335.7154 C275.167,335.7154 275.167,412.2669 275.167,412.2669 " fill="none" id="uni.Student-&gt;uni.PhoneNumber" style="stroke: #A80036; stroke-width: 1.0;"/><polygon fill="#A80036" points="275.167,425.2669,279.167,419.2669,275.167,413.2669,271.167,419.2669,275.167,425.2669" style="stroke: #A80036; stroke-width: 1.0;"/><text fill="#000000" font-family="sans-serif" font-size="13" lengthAdjust="spacingAndGlyphs" textLength="63" x="258" y="392.1045">phonebook</text><text fill="#000000" font-family="sans-serif" font-size="13" lengthAdjust="spacingAndGlyphs" textLength="63" x="279.4327" y="356.9602">phonebook</text><text fill="#000000" font-family="sans-serif" font-size="13" lengthAdjust="spacingAndGlyphs" textLength="63" x="212.5733" y="414.9214">phonebook</text><!--MD5=[ace9bb7f94a7dc0c565bc3160d99f07b]
link uni.Student to uni.Grade--><path d="M251.833,335.6104 C251.833,358.8314 251.833,386.6094 251.833,386.6094 C251.833,386.6094 117.25,386.6094 117.25,386.6094 C117.25,386.6094 117.25,412.4321 117.25,412.4321 " fill="none" id="uni.Student-&gt;uni.Grade" style="stroke: #A80036; stroke-width: 1.0;"/><polygon fill="#A80036" points="117.25,425.4321,121.25,419.4321,117.25,413.4321,113.25,419.4321,117.25,425.4321" style="stroke: #A80036; stroke-width: 1.0;"/><text fill="#000000" font-family="sans-serif" font-size="13" lengthAdjust="spacingAndGlyphs" textLength="43" x="201.4695" y="358.8238">student</text><text fill="#000000" font-family="sans-serif" font-size="13" lengthAdjust="spacingAndGlyphs" textLength="32" x="81.2141" y="414.7268">grade</text><!--MD5=[61260b0170d07da10bd3170437998dd7]
link uni.Student to uni.Address--><path d="M337.75,335.7154 C337.75,335.7154 337.75,412.2669 337.75,412.2669 " fill="none" id="uni.Student-&gt;uni.Address" style="stroke: #A80036; stroke-width: 1.0;"/><polygon fill="#A80036" points="337.75,425.2669,341.75,419.2669,337.75,413.2669,333.75,419.2669,337.75,425.2669" style="stroke: #A80036; stroke-width: 1.0;"/><text fill="#000000" font-family="sans-serif" font-size="13" lengthAdjust="spacingAndGlyphs" textLength="43" x="349.5836" y="355.4841">student</text><text fill="#000000" font-family="sans-serif" font-size="13" lengthAdjust="spacingAndGlyphs" textLength="46" x="305.2006" y="414.7332">address</text><!--MD5=[3eb08f2990cbf6cf5b3cf75c0b209372]
link monticore.Person to monticore.Person--><path d="M285,74.4944 C285,74.4944 285,68.6094 285,68.6094 C285,68.6094 163,68.6094 163,68.6094 C163,68.6094 163,219.6094 163,219.6094 C163,219.6094 187,219.6094 187,219.6094 C187,219.6094 187,188.6404 187,188.6404 " fill="none" id="monticore.Person-monticore.Person" style="stroke: #A80036; stroke-width: 1.0;"/><polygon fill="#A80036" points="187,176.6404,183,182.6404,187,188.6404,191,182.6404,187,176.6404" style="stroke: #A80036; stroke-width: 1.0;"/><polygon fill="#A80036" points="285,86.4944,289,80.4944,285,74.4944,281,80.4944,285,86.4944" style="stroke: #A80036; stroke-width: 1.0;"/><text fill="#000000" font-family="sans-serif" font-size="13" lengthAdjust="spacingAndGlyphs" textLength="36" x="246.1313" y="75.5915">parent</text><text fill="#000000" font-family="sans-serif" font-size="13" lengthAdjust="spacingAndGlyphs" textLength="27" x="145.7141" y="196.9841">child</text><text fill="#888888" font-family="sans-serif" font-size="10" lengthAdjust="spacingAndGlyphs" textLength="200" x="116" y="505.9902">generated with MontiCore using PlantUML</text><!--MD5=[f636c17c2412edab97353ce07fd711a5]
@startuml
  skinparam linetype ortho
  skinparam classAttributeIconSize 0
  skinparam legend {
    BorderColor black
    BackGroundColor white
  }
  legend top right
    monticore.MyLife CD
  end legend
  namespace monticore {
    class Person {
      {field} int age
      {field} java.util.Date birthday
      {field} java.util.List<java.lang.String> nickNames
    }
    class PhoneNumber
  }

  namespace uni {
    class Student extends monticore.Person {
      {field} StudentStatus status
    }
    class Grade
    enum StudentStatus {
      __ Enum Constants __
      ENROLLED
      FINISHED
    }
  }

  uni.Student "phonebook" - -* "phonebook" uni.PhoneNumber : phonebook
  uni.Student "student" - -* "grade" uni.Grade
  uni.Student "student" - -* "address" uni.Address
  monticore.Person "parent" *- -* "child" monticore.Person
  center footer generated with MontiCore using PlantUML
@enduml

PlantUML version 1.2020.15(Sun Jun 28 13:39:45 CEST 2020)
(GPL source distribution)
Java Runtime: Java(TM) SE Runtime Environment
JVM: Java HotSpot(TM) 64-Bit Server VM
Default Encoding: Cp1252
Language: de
Country: DE
--></g></svg>
